<svg width="32.002014" height="48.000000" viewBox="0 0 32.002 48" fill="none" xmlns="http://www.w3.org/2000/svg" xmlns:xlink="http://www.w3.org/1999/xlink">
	<desc>
			Created with Pixso.
	</desc>
	<defs/>
	<path id="icon.svg" d="M17.326 0L14.672 0C6.41901 0.617981 0 7.06799 0 14.817L0 33.071C0.00201416 41.3 7.17804 48 16.002 48C24.826 48 32.002 41.3 32.002 33.069L32.002 14.811C32.002 7.06799 25.582 0.617004 17.326 0ZM29.002 32.868C29.002 39.553 23.169 44.987 16.002 44.987C8.83502 44.987 3.00201 39.553 3.00201 32.868L3.00201 15.1C3.00201 8.41699 8.83398 2.98199 16.002 2.98199C23.17 2.98199 29.002 8.41699 29.002 15.1L29.002 32.865L29.002 32.868ZM16.002 13C15.7415 12.9975 15.483 13.0464 15.2413 13.144C14.9997 13.2415 14.7797 13.3858 14.5939 13.5685C14.4081 13.7513 14.2602 13.9688 14.1586 14.2088C14.0571 14.4488 14.0038 14.7064 14.002 14.967L14.002 20.033C14.0342 20.5405 14.2584 21.0168 14.6292 21.3648C15 21.7128 15.4894 21.9066 15.998 21.9066C16.5065 21.9066 16.996 21.7128 17.3668 21.3648C17.7376 21.0168 17.9619 20.5405 17.994 20.033L17.994 14.967C17.9901 14.4422 17.7781 13.9404 17.4047 13.5717C17.0312 13.2029 16.5268 12.9973 16.002 13Z" fill="#FFFFFF" fill-opacity="1.000000" fill-rule="evenodd"/>
</svg>
