<svg width="20.000000" height="20.000000" viewBox="0 0 20 20" fill="none" xmlns="http://www.w3.org/2000/svg" xmlns:xlink="http://www.w3.org/1999/xlink">
	<desc>
			Created with Pixso.
	</desc>
	<defs/>
	<path id="Vector" d="M15.34 3.45996C15.1027 3.45996 14.8707 3.53027 14.6733 3.66235C14.476 3.79419 14.3221 3.98145 14.2313 4.20068C14.1405 4.42017 14.1168 4.66138 14.1631 4.89404C14.2094 5.12695 14.3237 5.34082 14.4915 5.50854C14.6593 5.67627 14.8731 5.79053 15.1059 5.83691C15.3387 5.8833 15.58 5.85938 15.7992 5.76855C16.0185 5.67773 16.2059 5.52393 16.3378 5.32666C16.4696 5.12939 16.54 4.89722 16.54 4.65991C16.54 4.3418 16.4136 4.03662 16.1885 3.81152C15.9635 3.58643 15.6583 3.45996 15.34 3.45996ZM19.94 5.87988C19.9205 5.05029 19.7651 4.22949 19.48 3.44995C19.2257 2.7832 18.83 2.1792 18.32 1.67993C17.8248 1.16748 17.2195 0.77417 16.55 0.530029C15.7726 0.236084 14.9509 0.0771484 14.12 0.0600586C13.06 0 12.72 0 10 0C7.28003 0 6.94 0 5.88 0.0600586C5.04913 0.0771484 4.22736 0.236084 3.45001 0.530029C2.78168 0.776611 2.17694 1.16968 1.67999 1.67993C1.16742 2.17529 0.77417 2.78052 0.530029 3.44995C0.236145 4.22729 0.0772095 5.04907 0.0599976 5.87988C0 6.93994 0 7.28003 0 10C0 12.72 0 13.0601 0.0599976 14.1201C0.0772095 14.9509 0.236145 15.7727 0.530029 16.55C0.77417 17.2195 1.16742 17.8247 1.67999 18.3201C2.17694 18.8303 2.78168 19.2234 3.45001 19.47C4.22736 19.7639 5.04913 19.9229 5.88 19.9399C6.94 20 7.28003 20 10 20C12.72 20 13.06 20 14.12 19.9399C14.9509 19.9229 15.7726 19.7639 16.55 19.47C17.2195 19.2258 17.8248 18.8325 18.32 18.3201C18.8322 17.8225 19.2283 17.2183 19.48 16.55C19.7651 15.7705 19.9205 14.9497 19.94 14.1201C19.94 13.0601 20 12.72 20 10C20 7.28003 20 6.93994 19.94 5.87988ZM18.14 14C18.1327 14.6348 18.0178 15.2637 17.8 15.8601C17.6403 16.2952 17.3839 16.6885 17.05 17.01C16.7256 17.3406 16.3333 17.5964 15.9 17.76C15.3037 17.9778 14.6747 18.0928 14.04 18.1001C13.04 18.1499 12.67 18.1599 10.04 18.1599C7.40997 18.1599 7.03998 18.1599 6.03998 18.1001C5.38092 18.1123 4.72461 18.0107 4.09998 17.8C3.68579 17.6282 3.31134 17.3728 3 17.05C2.66809 16.7288 2.41486 16.3352 2.26001 15.8999C2.01587 15.2952 1.88043 14.6519 1.85999 14C1.85999 13 1.79999 12.6299 1.79999 10C1.79999 7.37012 1.79999 7 1.85999 6C1.8645 5.35107 1.98297 4.70801 2.21002 4.1001C2.38605 3.67798 2.65625 3.30176 3 3C3.30383 2.65625 3.67926 2.38306 4.09998 2.19995C4.70953 1.97998 5.35199 1.86499 6 1.86011C7 1.86011 7.37 1.80005 10 1.80005C12.63 1.80005 13 1.80005 14 1.86011C14.6348 1.86719 15.2637 1.98218 15.86 2.19995C16.3145 2.36865 16.7223 2.64282 17.05 3C17.3777 3.30713 17.6338 3.68262 17.8 4.1001C18.0223 4.70898 18.1373 5.35181 18.14 6C18.19 7 18.2 7.37012 18.2 10C18.2 12.6299 18.19 13 18.14 14ZM10 4.87012C8.98584 4.87207 7.99493 5.17456 7.15265 5.7395C6.31036 6.3042 5.65436 7.1062 5.26764 8.0437C4.88086 8.9812 4.7807 10.0125 4.9798 11.0068C5.17889 12.0015 5.66821 12.9146 6.38605 13.6309C7.10394 14.3474 8.01801 14.835 9.01288 15.0322C10.0077 15.2292 11.0387 15.1272 11.9755 14.7385C12.9123 14.3499 13.7129 13.6924 14.2761 12.8491C14.8394 12.0056 15.14 11.0142 15.14 10C15.1413 9.3252 15.0092 8.65649 14.7512 8.03296C14.4933 7.40942 14.1146 6.84277 13.6368 6.36597C13.1592 5.8894 12.5919 5.51172 11.9678 5.25488C11.3436 4.99829 10.6749 4.86743 10 4.87012ZM10 13.3301C9.34137 13.3301 8.69757 13.1348 8.14996 12.7688C7.60236 12.4028 7.17554 11.8828 6.92346 11.2744C6.67145 10.6658 6.60547 9.99634 6.73401 9.35034C6.86249 8.70435 7.17963 8.11108 7.64532 7.64526C8.11102 7.17969 8.70441 6.86255 9.35034 6.73389C9.99628 6.60547 10.6658 6.67139 11.2744 6.92358C11.8828 7.17554 12.4029 7.60229 12.7688 8.1499C13.1347 8.69751 13.33 9.34131 13.33 10C13.33 10.4373 13.2439 10.8704 13.0765 11.2744C12.9092 11.6785 12.6639 12.0454 12.3547 12.3547C12.0455 12.6638 11.6783 12.9092 11.2744 13.0764C10.8703 13.2439 10.4373 13.3301 10 13.3301Z" fill="#FFFFFF" fill-opacity="1.000000" fill-rule="nonzero"/>
</svg>
