<svg width="20.000000" height="20.000000" viewBox="0 0 20 20" fill="none" xmlns="http://www.w3.org/2000/svg" xmlns:xlink="http://www.w3.org/1999/xlink">
	<desc>
			Created with Pixso.
	</desc>
	<defs/>
	<path id="Vector" d="M13.0729 0L6.9375 0C1.33331 0 0 1.33325 0 6.927L0 13.0625C0 18.6667 1.32294 20 6.92706 20L13.0625 20C18.6667 20 20 18.677 20 13.073L20 6.9375C20 1.33325 18.6771 0 13.0729 0ZM16.1458 14.2708L14.6875 14.2708C14.1354 14.2708 13.9688 13.823 12.9792 12.8333C12.1146 12 11.75 11.8958 11.5312 11.8958C11.2292 11.8958 11.1458 11.9792 11.1458 12.3958L11.1458 13.7083C11.1458 14.0625 11.0312 14.2708 10.1042 14.2708C9.20459 14.2104 8.33221 13.937 7.5589 13.4734C6.78558 13.0098 6.13348 12.3691 5.65625 11.6042C4.52338 10.1941 3.73511 8.53906 3.35419 6.77075C3.35419 6.552 3.4375 6.35425 3.85419 6.35425L5.3125 6.35425C5.6875 6.35425 5.82294 6.52075 5.96875 6.90625C6.67706 8.9895 7.88544 10.802 8.375 10.802C8.5625 10.802 8.64581 10.7188 8.64581 10.25L8.64581 8.10425C8.58331 7.125 8.0625 7.04175 8.0625 6.6875C8.06934 6.59399 8.11237 6.50708 8.18237 6.44482C8.25238 6.38257 8.34393 6.3501 8.4375 6.35425L10.7292 6.35425C11.0417 6.35425 11.1458 6.5105 11.1458 6.8855L11.1458 9.78125C11.1458 10.0938 11.2812 10.198 11.375 10.198C11.5625 10.198 11.7083 10.0938 12.0521 9.75C12.7908 8.84912 13.3943 7.8457 13.8438 6.77075C13.8896 6.6416 13.9766 6.53076 14.0913 6.45557C14.2061 6.38037 14.3423 6.34473 14.4792 6.35425L15.9375 6.35425C16.375 6.35425 16.4688 6.573 16.375 6.8855C15.8444 8.07373 15.1879 9.20166 14.4167 10.25C14.2604 10.4895 14.1979 10.6145 14.4167 10.8958C14.5625 11.1145 15.0729 11.5417 15.4167 11.948C15.9167 12.4465 16.3318 13.0237 16.6458 13.6562C16.7708 14.0625 16.5625 14.2708 16.1458 14.2708Z" fill="#FFFFFF" fill-opacity="1.000000" fill-rule="nonzero"/>
</svg>
